HIERARCHY
ROOT joint_Root
{
  OFFSET 0 0 0
  CHANNELS 6 Xposition Yposition Zposition Zrotation Xrotation Yrotation
  JOINT Hips
  {
    OFFSET 0 93.9241 -3
    CHANNELS 6 Xposition Yposition Zposition Zrotation Xrotation Yrotation
    JOINT Spine
    {
      OFFSET 15.7357 0 0
      CHANNELS 6 Xposition Yposition Zposition Zrotation Xrotation Yrotation
      JOINT Chest
      {
        OFFSET 8.98455 -0.406207 0
        CHANNELS 6 Xposition Yposition Zposition Zrotation Xrotation Yrotation
        JOINT Neck
        {
          OFFSET 16.3773 0 0
          CHANNELS 6 Xposition Yposition Zposition Zrotation Xrotation Yrotation
          JOINT Head
          {
            OFFSET 6.45672 0 0
            CHANNELS 6 Xposition Yposition Zposition Zrotation Xrotation Yrotation
            End Site
            {
              OFFSET 0 0 0
            }
          }
        }
        JOINT Shoulder_L
        {
          OFFSET 12.9942 -0.242716 4.98039
          CHANNELS 6 Xposition Yposition Zposition Zrotation Xrotation Yrotation
          JOINT UpperArm_L
          {
            OFFSET 5.34809 0 0
            CHANNELS 6 Xposition Yposition Zposition Zrotation Xrotation Yrotation
            JOINT LowerArm_L
            {
              OFFSET 24.3286 1.87007e-05 0
              CHANNELS 6 Xposition Yposition Zposition Zrotation Xrotation Yrotation
              JOINT Hand_L
              {
                OFFSET 22.2916 0 0
                CHANNELS 6 Xposition Yposition Zposition Zrotation Xrotation Yrotation
                End Site
                {
                  OFFSET 0 0 0
                }
              }
            }
          }
        }
        JOINT Shoulder_R
        {
          OFFSET 12.9945 -0.242716 -4.98039
          CHANNELS 6 Xposition Yposition Zposition Zrotation Xrotation Yrotation
          JOINT UpperArm_R
          {
            OFFSET -5.34813 0 0
            CHANNELS 6 Xposition Yposition Zposition Zrotation Xrotation Yrotation
            JOINT LowerArm_R
            {
              OFFSET -24.3289 0.000322201 0
              CHANNELS 6 Xposition Yposition Zposition Zrotation Xrotation Yrotation
              JOINT Hand_R
              {
                OFFSET -22.2915 -0.000108084 0
                CHANNELS 6 Xposition Yposition Zposition Zrotation Xrotation Yrotation
                End Site
                {
                  OFFSET 0 0 0
                }
              }
            }
          }
        }
      }
    }
    JOINT UpperLeg_L
    {
      OFFSET -2.19248 -6.46944 0
      CHANNELS 6 Xposition Yposition Zposition Zrotation Xrotation Yrotation
      JOINT LowerLeg_L
      {
        OFFSET 39.0811 0 -1.23785e-05
        CHANNELS 6 Xposition Yposition Zposition Zrotation Xrotation Yrotation
        JOINT Foot_L
        {
          OFFSET 40.9854 0 -1.26872e-05
          CHANNELS 6 Xposition Yposition Zposition Zrotation Xrotation Yrotation
          JOINT Toes_L
          {
            OFFSET 11.7543 0 0
            CHANNELS 6 Xposition Yposition Zposition Zrotation Xrotation Yrotation
            End Site
            {
              OFFSET 0 0 0
            }
          }
        }
      }
    }
    JOINT UpperLeg_R
    {
      OFFSET -2.19251 6.46944 0
      CHANNELS 6 Xposition Yposition Zposition Zrotation Xrotation Yrotation
      JOINT LowerLeg_R
      {
        OFFSET -39.0811 -0.00228153 -0.0401928
        CHANNELS 6 Xposition Yposition Zposition Zrotation Xrotation Yrotation
        JOINT Foot_R
        {
          OFFSET -40.9854 0 0
          CHANNELS 6 Xposition Yposition Zposition Zrotation Xrotation Yrotation
          JOINT Toes_R
          {
            OFFSET -11.7543 0 0
            CHANNELS 6 Xposition Yposition Zposition Zrotation Xrotation Yrotation
            End Site
            {
              OFFSET 0 0 0
            }
          }
        }
      }
    }
  }
}
MOTION
Frames:	9
Frame Time:	0.0333333
0 0 0 0 0 -0 3.39984 91.4271 -84.3784 92.0184 -0.52577 3.32611 15.7357 5.1072e-06 -5.51765e-07 93.6374 85.6612 -95.0081 8.98455 -0.406207 -4.3199e-07 0.903108 0.632365 -2.74415 16.3773 -1.3905e-06 -6.99897e-07 4.66273 -4.73742 5.67214 6.45672 -1.25837e-06 -1.02172e-07 21.4708 -6.15457 8.84964 12.9942 -0.242716 4.98039 -90.4088 2.32392 -95.0256 5.34809 -7.22636e-06 -6.2814e-07 -71.5821 12.5382 -0.510674 24.3286 1.87007e-05 4.90208e-06 3.90331 10.1281 -21.2062 22.2916 -9.88446e-07 4.63217e-06 6.47934 5.15336 3.86267 12.9945 -0.242716 -4.98039 89.3345 4.9416 -97.3219 -5.34813 -1.25947e-06 -3.79883e-06 -73.398 4.15801 5.2587 -24.3289 0.000322201 -8.65921e-06 3.77637 16.1041 -13.3892 -22.2915 -0.000108084 -4.47941e-06 11.3345 5.34331 -1.1773 -2.19248 -6.46944 -1.22534e-07 172.448 -4.23002 -9.52114 39.0811 -6.73843e-06 -1.23785e-05 0.140647 -0.245754 25.3075 40.9854 -6.48686e-06 -1.26872e-05 8.06279 6.0705 -63.4163 11.7543 -2.30145e-07 3.05095e-06 0.0751729 -0.0845476 -17.402 -2.19251 6.46944 -1.45247e-06 177.639 4.9346 165.294 -39.0811 -0.00228153 -0.0401928 -0.168974 0.0840673 64.406 -40.9854 7.72618e-06 5.99936e-06 5.01209 -15.2023 -41.2098 -11.7543 -5.6619e-06 -5.58687e-06 0.604222 -0.683251 -21.6507 
0 0 0 0 0 -0 3.31089 91.5802 -83.0083 91.2066 0.156022 3.74042 15.7357 5.1072e-06 -5.51765e-07 90.5539 85.3767 -91.6375 8.98455 -0.406207 -4.3199e-07 1.48238 0.148738 -2.16723 16.3773 -1.3905e-06 -6.99897e-07 5.01399 -4.87441 5.48994 6.45672 -1.25837e-06 -1.02172e-07 21.8535 -6.09568 8.73221 12.9942 -0.242716 4.98039 -90.3499 2.05896 -95.3524 5.34809 -7.22636e-06 -6.2814e-07 -71.537 13.0572 -2.09426 24.3286 1.87007e-05 4.90208e-06 3.84072 10.2028 -20.7568 22.2916 -9.88446e-07 4.63217e-06 6.42312 5.14797 3.99195 12.9945 -0.242716 -4.98039 89.3381 4.73602 -97.0343 -5.34813 -1.25947e-06 -3.79883e-06 -73.4067 4.2349 4.94765 -24.3289 0.000322201 -8.65921e-06 4.66663 15.7647 -16.7265 -22.2915 -0.000108084 -4.47941e-06 11.2597 5.35846 -1.63231 -2.19248 -6.46944 -1.22534e-07 173.406 -3.59764 -7.83753 39.0811 -6.73843e-06 -1.23785e-05 0.123795 -0.217 24.8812 40.9854 -6.48686e-06 -1.26872e-05 7.99508 5.98761 -64.1602 11.7543 -2.30145e-07 3.05095e-06 0.0491901 -0.0550514 -17.1155 -2.19251 6.46944 -1.45247e-06 179.137 3.6967 162.874 -39.0811 -0.00228153 -0.0401928 -0.238924 0.121705 63.5714 -40.9854 7.72618e-06 5.99936e-06 6.33281 -18.3887 -44.6241 -11.7543 -5.6619e-06 -5.58687e-06 0.565714 -0.635906 -21.3113 
0 0 0 0 0 -0 3.22509 91.7196 -81.6942 90.5869 0.606874 4.02977 15.7357 5.1072e-06 -5.51765e-07 89.0149 85.1253 -89.8791 8.98455 -0.406207 -4.3199e-07 1.98162 -0.123892 -1.72446 16.3773 -1.3905e-06 -6.99897e-07 5.26336 -4.95788 5.33244 6.45672 -1.25837e-06 -1.02172e-07 22.0582 -6.14131 8.56401 12.9942 -0.242716 4.98039 -90.2916 1.75616 -95.574 5.34809 -7.22636e-06 -6.2814e-07 -71.6047 13.3681 -3.56658 24.3286 1.87007e-05 4.90208e-06 3.85561 10.4078 -20.4585 22.2916 -9.88446e-07 4.63217e-06 6.40587 5.13926 4.19908 12.9945 -0.242716 -4.98039 89.3267 4.69167 -96.8246 -5.34813 -1.25947e-06 -3.79883e-06 -73.3187 4.09242 4.79724 -24.3289 0.000322201 -8.65921e-06 5.64001 15.5442 -20.2333 -22.2915 -0.000108084 -4.47941e-06 11.5773 5.37848 -2.25009 -2.19248 -6.46944 -1.22534e-07 174.117 -2.75779 -6.2622 39.0811 -6.73843e-06 -1.23785e-05 0.107419 -0.19042 24.253 40.9854 -6.48686e-06 -1.26872e-05 7.82629 5.51016 -64.7087 11.7543 -2.30145e-07 3.05095e-06 0.00715103 -0.00793992 -16.6553 -2.19251 6.46944 -1.45247e-06 -179.836 2.09321 160.998 -39.0811 -0.00228153 -0.0401928 -0.263907 0.149024 60.5051 -40.9854 7.72618e-06 5.99936e-06 6.49489 -20.7877 -47.7754 -11.7543 -5.6619e-06 -5.58687e-06 0.541183 -0.606028 -21.0963 
0 0 0 0 0 -0 3.16452 91.8223 -80.5028 90.2185 0.88727 4.1165 15.7357 5.1072e-06 -5.51765e-07 88.3209 84.954 -89.0427 8.98455 -0.406207 -4.3199e-07 2.32035 -0.261214 -1.43705 16.3773 -1.3905e-06 -6.99897e-07 5.39657 -4.888 5.19896 6.45672 -1.25837e-06 -1.02172e-07 22.1105 -6.18144 8.27062 12.9942 -0.242716 4.98039 -90.2569 1.56942 -95.7042 5.34809 -7.22636e-06 -6.2814e-07 -71.6934 13.576 -4.67188 24.3286 1.87007e-05 4.90208e-06 3.89672 10.4636 -20.559 22.2916 -9.88446e-07 4.63217e-06 6.56035 5.13578 4.28091 12.9945 -0.242716 -4.98039 89.3045 4.76448 -96.6852 -5.34813 -1.25947e-06 -3.79883e-06 -73.1271 4.11699 4.64647 -24.3289 0.000322201 -8.65921e-06 6.4986 15.2288 -23.4473 -22.2915 -0.000108084 -4.47941e-06 12.0485 5.3913 -2.65645 -2.19248 -6.46944 -1.22534e-07 174.517 -2.0438 -4.93423 39.0811 -6.73843e-06 -1.23785e-05 0.0907802 -0.162538 23.5267 40.9854 -6.48686e-06 -1.26872e-05 7.66822 4.95498 -65.1342 11.7543 -2.30145e-07 3.05095e-06 -0.0210062 0.0185381 -16.5766 -2.19251 6.46944 -1.45247e-06 -179.327 0.439007 159.208 -39.0811 -0.00228153 -0.0401928 -0.241206 0.166152 55.8691 -40.9854 7.72618e-06 5.99936e-06 6.5082 -21.6665 -50.0436 -11.7543 -5.6619e-06 -5.58687e-06 0.515478 -0.57498 -20.8722 
0 0 0 0 0 -0 3.07787 91.9068 -79.3761 89.9684 1.24723 3.92433 15.7357 5.1072e-06 -5.51765e-07 87.0792 84.8731 -87.6953 8.98455 -0.406207 -4.3199e-07 2.47219 -0.493617 -1.22017 16.3773 -1.3905e-06 -6.99897e-07 5.35015 -4.78822 5.03331 6.45672 -1.25837e-06 -1.02172e-07 22.1993 -6.02337 7.92872 12.9942 -0.242716 4.98039 -90.2688 1.64283 -95.7094 5.34809 -7.22636e-06 -6.2814e-07 -71.6417 13.6818 -5.23344 24.3286 1.87007e-05 4.90208e-06 4.01601 10.372 -21.3036 22.2916 -9.88446e-07 4.63217e-06 6.70467 5.13544 4.28932 12.9945 -0.242716 -4.98039 89.2856 4.88407 -96.6683 -5.34813 -1.25947e-06 -3.79883e-06 -72.8958 4.40745 4.22674 -24.3289 0.000322201 -8.65921e-06 7.1724 15.161 -25.6984 -22.2915 -0.000108084 -4.47941e-06 12.6072 5.40257 -3.02088 -2.19248 -6.46944 -1.22534e-07 174.862 -1.75576 -3.9138 39.0811 -6.73843e-06 -1.23785e-05 0.0723443 -0.128974 22.7525 40.9854 -6.48686e-06 -1.26872e-05 7.59599 4.91755 -65.5455 11.7543 -2.30145e-07 3.05095e-06 -0.0283891 0.0251587 -16.5765 -2.19251 6.46944 -1.45247e-06 -179.237 -0.970117 158.074 -39.0811 -0.00228153 -0.0401928 -0.186682 0.164668 49.0824 -40.9854 7.72618e-06 5.99936e-06 5.9476 -21.3904 -51.4836 -11.7543 -5.6619e-06 -5.58687e-06 0.527756 -0.589802 -20.9792 
0 0 0 0 0 -0 3.01299 91.9725 -78.2556 89.9481 1.64157 3.55991 15.7357 5.1072e-06 -5.51765e-07 86.3656 84.8834 -86.9694 8.98455 -0.406207 -4.3199e-07 2.44381 -0.620124 -1.19312 16.3773 -1.3905e-06 -6.99897e-07 5.32286 -4.70604 4.91801 6.45672 -1.25837e-06 -1.02172e-07 22.2314 -5.86002 7.71306 12.9942 -0.242716 4.98039 -90.2802 1.73667 -95.8332 5.34809 -7.22636e-06 -6.2814e-07 -71.7019 13.7087 -5.33198 24.3286 1.87007e-05 4.90208e-06 4.20785 10.3114 -22.3442 22.2916 -9.88446e-07 4.63217e-06 6.86714 5.13927 4.19869 12.9945 -0.242716 -4.98039 89.2859 4.85306 -96.6185 -5.34813 -1.25947e-06 -3.79883e-06 -72.8728 4.95049 3.62702 -24.3289 0.000322201 -8.65921e-06 7.46811 15.0572 -26.7787 -22.2915 -0.000108084 -4.47941e-06 12.9398 5.40886 -3.2274 -2.19248 -6.46944 -1.22534e-07 174.898 -1.04641 -2.98251 39.0811 -6.73843e-06 -1.23785e-05 0.0544309 -0.0954547 21.783 40.9854 -6.48686e-06 -1.26872e-05 7.46227 4.53328 -65.7922 11.7543 -2.30145e-07 3.05095e-06 -0.048045 0.04275 -16.5757 -2.19251 6.46944 -1.45247e-06 -179.588 -2.19704 157.895 -39.0811 -0.00228153 -0.0401928 -0.123808 0.15025 39.9765 -40.9854 7.72618e-06 5.99936e-06 5.34814 -20.9962 -51.5522 -11.7543 -5.6619e-06 -5.58687e-06 0.514467 -0.573755 -20.8634 
0 0 0 0 0 -0 2.94649 91.9724 -77.0585 90.1312 2.07028 3.05297 15.7357 5.1072e-06 -5.51765e-07 85.7153 84.9745 -86.3636 8.98455 -0.406207 -4.3199e-07 2.25338 -0.719214 -1.28114 16.3773 -1.3905e-06 -6.99897e-07 5.22244 -4.63242 4.82216 6.45672 -1.25837e-06 -1.02172e-07 22.2915 -5.75956 7.42056 12.9942 -0.242716 4.98039 -90.2906 1.79933 -95.827 5.34809 -7.22636e-06 -6.2814e-07 -71.9614 13.883 -5.11242 24.3286 1.87007e-05 4.90208e-06 4.45495 10.3596 -23.4244 22.2916 -9.88446e-07 4.63217e-06 6.96504 5.14699 4.01493 12.9945 -0.242716 -4.98039 89.3347 4.50473 -96.5906 -5.34813 -1.25947e-06 -3.79883e-06 -73.1971 5.44599 2.94865 -24.3289 0.000322201 -8.65921e-06 7.57806 15.1853 -26.929 -22.2915 -0.000108084 -4.47941e-06 12.9222 5.40595 -3.13085 -2.19248 -6.46944 -1.22534e-07 174.754 -0.553243 -2.19299 39.0811 -6.73843e-06 -1.23785e-05 0.0384441 -0.0618839 20.9304 40.9854 -6.48686e-06 -1.26872e-05 7.40599 4.39634 -66.1798 11.7543 -2.30145e-07 3.05095e-06 -0.0532964 0.0476358 -16.5756 -2.19251 6.46944 -1.45247e-06 179.845 -2.96975 158.788 -39.0811 -0.00228153 -0.0401928 -0.0734688 0.130412 28.7768 -40.9854 7.72618e-06 5.99936e-06 5.50866 -19.8296 -50.1541 -11.7543 -5.6619e-06 -5.58687e-06 0.517473 -0.577391 -20.8896 
0 0 0 0 0 -0 2.88949 91.877 -75.7492 90.6459 2.58205 2.43738 15.7357 5.1072e-06 -5.51765e-07 85.0645 85.1284 -85.8604 8.98455 -0.406207 -4.3199e-07 1.93618 -0.797257 -1.57695 16.3773 -1.3905e-06 -6.99897e-07 5.05963 -4.5695 4.69777 6.45672 -1.25837e-06 -1.02172e-07 22.2074 -5.81796 7.17938 12.9942 -0.242716 4.98039 -90.2806 1.70672 -95.6627 5.34809 -7.22636e-06 -6.2814e-07 -72.5542 14.0428 -4.68501 24.3286 1.87007e-05 4.90208e-06 4.60022 10.2649 -24.3006 22.2916 -9.88446e-07 4.63217e-06 6.94845 5.1511 3.91717 12.9945 -0.242716 -4.98039 89.4142 3.96343 -96.5849 -5.34813 -1.25947e-06 -3.79883e-06 -73.701 5.89442 2.41961 -24.3289 0.000322201 -8.65921e-06 7.49185 15.3018 -26.4912 -22.2915 -0.000108084 -4.47941e-06 12.5574 5.39979 -2.93036 -2.19248 -6.46944 -1.22534e-07 174.305 -0.267148 -1.50632 39.0811 -6.73843e-06 -1.23785e-05 0.0278989 -0.0388356 20.2672 40.9854 -6.48686e-06 -1.26872e-05 7.43932 4.53965 -66.7761 11.7543 -2.30145e-07 3.05095e-06 -0.0688315 0.0618667 -16.5749 -2.19251 6.46944 -1.45247e-06 179.239 -2.53317 160.77 -39.0811 -0.00228153 -0.0401928 -0.0349683 0.116675 15.9423 -40.9854 7.72618e-06 5.99936e-06 6.34737 -16.2418 -46.9495 -11.7543 -5.6619e-06 -5.58687e-06 0.487545 -0.541518 -20.6297 
0 0 0 0 0 -0 2.79125 91.6933 -74.2207 91.2487 3.41429 1.94839 15.7357 5.1072e-06 -5.51765e-07 84.2659 85.2457 -85.2367 8.98455 -0.406207 -4.3199e-07 1.68828 -0.898048 -1.9266 16.3773 -1.3905e-06 -6.99897e-07 4.91475 -4.62908 4.55042 6.45672 -1.25837e-06 -1.02172e-07 21.9306 -6.04042 7.06637 12.9942 -0.242716 4.98039 -90.2556 1.53877 -95.5707 5.34809 -7.22636e-06 -6.2814e-07 -73.3195 14.1224 -4.24151 24.3286 1.87007e-05 4.90208e-06 4.62974 10.1688 -24.6401 22.2916 -9.88446e-07 4.63217e-06 6.69415 5.15665 3.78432 12.9945 -0.242716 -4.98039 89.4717 3.56964 -96.5752 -5.34813 -1.25947e-06 -3.79883e-06 -74.0662 6.23523 2.24793 -24.3289 0.000322201 -8.65921e-06 7.35022 15.4349 -25.8618 -22.2915 -0.000108084 -4.47941e-06 12.2669 5.39487 -2.77144 -2.19248 -6.46944 -1.22533e-07 173.84 0.148841 -0.661141 39.0811 -6.73843e-06 -1.23785e-05 0.0187402 -0.01644 19.9057 40.9854 -6.48686e-06 -1.26872e-05 7.49097 4.85079 -67.6838 11.7543 -2.30145e-07 3.05095e-06 -0.0678346 0.061604 -16.5752 -2.19251 6.46944 -1.45247e-06 178.84 -0.736119 162.044 -39.0811 -0.00228153 -0.0401928 -0.00434829 0.0482494 6.47369 -40.9854 7.72618e-06 5.99936e-06 3.45516 -11.4527 -46.2529 -11.7543 -5.6619e-06 -5.58687e-06 0.473735 -0.525072 -20.5103 
